# xmcd CD database file
# Copyright (C) 1993-1998 Ti Kan
#
# Track frame offsets:
#	150
#	12101
#	28983
#	42731
#	53218
#	65343
#	77832
#	102791
#	114248
#	127938
#	138782
#	153360
#	165377
#
# Disc length: 2370 seconds
#
# Revision: 1
# Processed by: cddbd v1.4b41PL1 Copyright (c) Steve Scherf et al.
# Submitted via: NotifyCDPlayer(CDDB) 1.51.3
#
DISCID=9e09400d
DTITLE=Howlin' Wolf - Cause Of It All
DYEAR=1900
DGENRE=
TTITLE0=Ain't Superstitious
TTITLE1=Goin' Down Slow
TTITLE2=I Walked From Dallas
TTITLE3=Hold On To Your Money
TTITLE4=Cause Of It All
TTITLE5=Killing Floor
TTITLE6=Red Rooster
TTITLE7=Built For Comfort
TTITLE8=Highway 49
TTITLE9=Wang Dang Doodle
TTITLE10=Commit A Crime
TTITLE11=My Mind Is Ramblin'
TTITLE12=Worried About You
EXTD=
EXTT0=
EXTT1=
EXTT2=
EXTT3=
EXTT4=
EXTT5=
EXTT6=
EXTT7=
EXTT8=
EXTT9=
EXTT10=
EXTT11=
EXTT12=
PLAYORDER=
